<svg width="3863" height="1053" viewBox="0 0 3863 1053" fill="none" xmlns="http://www.w3.org/2000/svg">
<path d="M1477.74 522.055C1477.74 547.445 1471.59 569.516 1459.28 588.266C1446.98 607.016 1429.01 621.469 1405.38 631.625C1381.94 641.781 1353.42 646.859 1319.83 646.859C1304.98 646.859 1290.43 645.883 1276.18 643.93C1262.11 641.977 1248.54 639.145 1235.45 635.434C1222.56 631.527 1210.26 626.742 1198.54 621.078V536.703C1218.85 545.688 1239.95 553.793 1261.82 561.02C1283.7 568.246 1305.38 571.859 1326.86 571.859C1341.7 571.859 1353.62 569.906 1362.6 566C1371.78 562.094 1378.42 556.723 1382.52 549.887C1386.62 543.051 1388.68 535.238 1388.68 526.449C1388.68 515.707 1385.06 506.527 1377.84 498.91C1370.61 491.293 1360.65 484.164 1347.95 477.523C1335.45 470.883 1321.29 463.754 1305.47 456.137C1295.51 451.449 1284.67 445.785 1272.95 439.145C1261.23 432.309 1250.1 424.008 1239.55 414.242C1229.01 404.477 1220.32 392.66 1213.48 378.793C1206.84 364.73 1203.52 347.934 1203.52 328.402C1203.52 302.816 1209.38 280.941 1221.1 262.777C1232.82 244.613 1249.52 230.746 1271.2 221.176C1293.07 211.41 1318.85 206.527 1348.54 206.527C1370.8 206.527 1392 209.164 1412.11 214.438C1432.43 219.516 1453.62 226.938 1475.69 236.703L1446.39 307.309C1426.66 299.301 1408.99 293.148 1393.36 288.852C1377.74 284.359 1361.82 282.113 1345.61 282.113C1334.28 282.113 1324.61 283.969 1316.61 287.68C1308.6 291.195 1302.54 296.273 1298.44 302.914C1294.34 309.359 1292.29 316.879 1292.29 325.473C1292.29 335.629 1295.22 344.223 1301.08 351.254C1307.13 358.09 1316.12 364.73 1328.03 371.176C1340.14 377.621 1355.18 385.141 1373.15 393.734C1395.02 404.086 1413.68 414.926 1429.11 426.254C1444.73 437.387 1456.74 450.57 1465.14 465.805C1473.54 480.844 1477.74 499.594 1477.74 522.055ZM1688.68 389.047L1778.03 212.68H1875.88L1733.79 474.301V641H1643.56V477.23L1501.47 212.68H1599.91L1688.68 389.047ZM2309.77 641H2194.34L2008.01 316.977H2005.38C2006.16 330.453 2006.84 344.027 2007.43 357.699C2008.01 371.371 2008.6 385.043 2009.18 398.715C2009.77 412.191 2010.36 425.766 2010.94 439.438V641H1929.79V212.68H2044.34L2230.38 533.48H2232.43C2232.04 520.199 2231.55 507.016 2230.96 493.93C2230.38 480.844 2229.79 467.758 2229.2 454.672C2228.81 441.586 2228.42 428.5 2228.03 415.414V212.68H2309.77V641ZM2583.11 641H2492.29V288.266H2375.98V212.68H2699.42V288.266H2583.11V641ZM3027.54 641L2996.49 539.047H2840.34L2809.28 641H2711.43L2862.6 210.922H2973.64L3125.39 641H3027.54ZM2974.81 462.875L2943.75 363.266C2941.8 356.625 2939.16 348.129 2935.84 337.777C2932.72 327.23 2929.5 316.586 2926.18 305.844C2923.05 294.906 2920.51 285.434 2918.56 277.426C2916.61 285.434 2913.87 295.395 2910.36 307.309C2907.04 319.027 2903.81 330.16 2900.69 340.707C2897.56 351.254 2895.32 358.773 2893.95 363.266L2863.19 462.875H2974.81ZM3525.88 641H3422.17L3322.56 478.988L3222.95 641H3125.69L3267.78 420.102L3134.77 212.68H3234.96L3327.25 366.781L3417.78 212.68H3515.63L3381.16 425.082L3525.88 641ZM3826.47 641H3579.79V212.68H3826.47V287.094H3670.61V381.137H3815.63V455.551H3670.61V566H3826.47V641Z" fill="#78777A"/>
<path d="M1407.64 855.869C1407.64 879.99 1403 900.156 1393.72 916.367C1384.54 932.48 1371.21 944.639 1353.73 952.842C1336.25 960.947 1315.21 965 1290.6 965H1229.95V750.84H1297.19C1319.65 750.84 1339.13 754.844 1355.64 762.852C1372.14 770.762 1384.93 782.529 1394.02 798.154C1403.1 813.682 1407.64 832.92 1407.64 855.869ZM1360.47 857.041C1360.47 841.221 1358.13 828.232 1353.44 818.076C1348.85 807.822 1342.01 800.254 1332.93 795.371C1323.95 790.488 1312.81 788.047 1299.53 788.047H1275.36V927.5H1294.85C1317.01 927.5 1333.47 921.592 1344.21 909.775C1355.05 897.959 1360.47 880.381 1360.47 857.041ZM1646.41 857.627C1646.41 874.131 1644.36 889.17 1640.26 902.744C1636.15 916.221 1629.9 927.842 1621.51 937.607C1613.21 947.373 1602.66 954.893 1589.87 960.166C1577.07 965.342 1561.94 967.93 1544.46 967.93C1526.97 967.93 1511.84 965.342 1499.04 960.166C1486.25 954.893 1475.66 947.373 1467.26 937.607C1458.96 927.842 1452.76 916.172 1448.65 902.598C1444.55 889.023 1442.5 873.936 1442.5 857.334C1442.5 835.166 1446.12 815.879 1453.34 799.473C1460.67 782.969 1471.9 770.176 1487.03 761.094C1502.17 752.012 1521.41 747.471 1544.75 747.471C1567.99 747.471 1587.08 752.012 1602.02 761.094C1617.06 770.176 1628.2 782.969 1635.42 799.473C1642.75 815.977 1646.41 835.361 1646.41 857.627ZM1490.11 857.627C1490.11 872.568 1491.96 885.459 1495.68 896.299C1499.48 907.041 1505.39 915.342 1513.4 921.201C1521.41 926.963 1531.76 929.844 1544.46 929.844C1557.35 929.844 1567.79 926.963 1575.8 921.201C1583.81 915.342 1589.62 907.041 1593.23 896.299C1596.95 885.459 1598.8 872.568 1598.8 857.627C1598.8 835.166 1594.6 817.49 1586.2 804.6C1577.8 791.709 1563.99 785.264 1544.75 785.264C1531.96 785.264 1521.51 788.193 1513.4 794.053C1505.39 799.814 1499.48 808.115 1495.68 818.955C1491.96 829.697 1490.11 842.588 1490.11 857.627ZM1773.41 965H1728V788.633H1669.85V750.84H1831.56V788.633H1773.41V965ZM2054.51 965H1996.8L1903.63 802.988H1902.32C1902.71 809.727 1903.05 816.514 1903.34 823.35C1903.63 830.186 1903.93 837.021 1904.22 843.857C1904.51 850.596 1904.81 857.383 1905.1 864.219V965H1864.52V750.84H1921.8L2014.82 911.24H2015.84C2015.65 904.6 2015.4 898.008 2015.11 891.465C2014.82 884.922 2014.52 878.379 2014.23 871.836C2014.04 865.293 2013.84 858.75 2013.64 852.207V750.84H2054.51V965ZM2231.91 965H2108.57V750.84H2231.91V788.047H2153.98V835.068H2226.49V872.275H2153.98V927.5H2231.91V965ZM2359.35 965H2313.94V788.633H2255.78V750.84H2417.5V788.633H2359.35V965Z" fill="#78777A"/>
<rect y="287.616" width="800" height="800" rx="150" transform="rotate(-20 0 287.616)" stroke="#78777A" stroke-width="70"/>
<rect x="273.617" y="14" width="800" height="800" rx="150" transform="rotate(20 273.617 14)" stroke="#78777A" stroke-width="70"/>
<path d="M284.973 592.07L408.02 539.58L284.973 488.066V415.557L503.479 518.584V560.576L284.973 664.092V592.07ZM751.037 664.092L532.531 560.576V518.584L751.037 415.557V488.066L627.99 539.58L751.037 592.07V664.092Z" fill="#78777A"/>
</svg>
